0
SECTION
2
HEADER
9
$ACADVER
1
AC1009
0
ENDSEC
0
SECTION
2
ENTITIES
0
LINE
8
CUT
10
5.000
20
0.000
30
0
11
195.000
21
0.000
31
0
0
LINE
8
CUT
10
200.000
20
5.000
30
0
11
200.000
21
245.000
31
0
0
LINE
8
CUT
10
195.000
20
250.000
30
0
11
5.000
21
250.000
31
0
0
LINE
8
CUT
10
0.000
20
245.000
30
0
11
0.000
21
5.000
31
0
0
ARC
8
CUT
10
195.000
20
5.000
30
0
40
5.000
50
270.000
51
360.000
0
ARC
8
CUT
10
195.000
20
245.000
30
0
40
5.000
50
0.000
51
90.000
0
ARC
8
CUT
10
5.000
20
245.000
30
0
40
5.000
50
90.000
51
180.000
0
ARC
8
CUT
10
5.000
20
5.000
30
0
40
5.000
50
180.000
51
270.000
0
CIRCLE
8
CUT
10
6.000
20
244.000
30
0
40
1.700
0
CIRCLE
8
CUT
10
194.000
20
244.000
30
0
40
1.700
0
CIRCLE
8
CUT
10
6.000
20
6.000
30
0
40
1.700
0
CIRCLE
8
CUT
10
194.000
20
6.000
30
0
40
1.700
0
CIRCLE
8
CUT
10
7.000
20
215.000
30
0
40
1.700
0
CIRCLE
8
CUT
10
193.000
20
215.000
30
0
40
1.700
0
CIRCLE
8
CUT
10
7.000
20
185.000
30
0
40
1.700
0
CIRCLE
8
CUT
10
193.000
20
185.000
30
0
40
1.700
0
CIRCLE
8
CUT
10
32.000
20
215.000
30
0
40
1.700
0
CIRCLE
8
CUT
10
168.000
20
215.000
30
0
40
1.700
0
CIRCLE
8
CUT
10
32.000
20
185.000
30
0
40
1.700
0
CIRCLE
8
CUT
10
168.000
20
185.000
30
0
40
1.700
0
CIRCLE
8
CUT
10
7.000
20
65.000
30
0
40
1.700
0
CIRCLE
8
CUT
10
193.000
20
65.000
30
0
40
1.700
0
CIRCLE
8
CUT
10
7.000
20
35.000
30
0
40
1.700
0
CIRCLE
8
CUT
10
193.000
20
35.000
30
0
40
1.700
0
CIRCLE
8
CUT
10
32.000
20
65.000
30
0
40
1.700
0
CIRCLE
8
CUT
10
168.000
20
65.000
30
0
40
1.700
0
CIRCLE
8
CUT
10
32.000
20
35.000
30
0
40
1.700
0
CIRCLE
8
CUT
10
168.000
20
35.000
30
0
40
1.700
0
CIRCLE
8
CUT
10
47.000
20
165.000
30
0
40
5.000
0
CIRCLE
8
CUT
10
153.000
20
165.000
30
0
40
5.000
0
CIRCLE
8
CUT
10
47.000
20
85.000
30
0
40
5.000
0
CIRCLE
8
CUT
10
153.000
20
85.000
30
0
40
5.000
0
LINE
8
CUT
10
235.000
20
0.000
30
0
11
425.000
21
0.000
31
0
0
LINE
8
CUT
10
430.000
20
5.000
30
0
11
430.000
21
245.000
31
0
0
LINE
8
CUT
10
425.000
20
250.000
30
0
11
235.000
21
250.000
31
0
0
LINE
8
CUT
10
230.000
20
245.000
30
0
11
230.000
21
5.000
31
0
0
ARC
8
CUT
10
425.000
20
5.000
30
0
40
5.000
50
270.000
51
360.000
0
ARC
8
CUT
10
425.000
20
245.000
30
0
40
5.000
50
0.000
51
90.000
0
ARC
8
CUT
10
235.000
20
245.000
30
0
40
5.000
50
90.000
51
180.000
0
ARC
8
CUT
10
235.000
20
5.000
30
0
40
5.000
50
180.000
51
270.000
0
CIRCLE
8
CUT
10
236.000
20
244.000
30
0
40
1.700
0
CIRCLE
8
CUT
10
424.000
20
244.000
30
0
40
1.700
0
CIRCLE
8
CUT
10
236.000
20
6.000
30
0
40
1.700
0
CIRCLE
8
CUT
10
424.000
20
6.000
30
0
40
1.700
0
CIRCLE
8
CUT
10
274.000
20
200.000
30
0
40
1.700
0
CIRCLE
8
CUT
10
386.000
20
200.000
30
0
40
1.700
0
CIRCLE
8
CUT
10
274.000
20
130.000
30
0
40
1.700
0
CIRCLE
8
CUT
10
386.000
20
130.000
30
0
40
1.700
0
CIRCLE
8
CUT
10
330.000
20
214.500
30
0
40
1.700
0
LINE
8
CUT
10
321.000
20
104.000
30
0
11
339.000
21
104.000
31
0
0
LINE
8
CUT
10
339.000
20
116.000
30
0
11
321.000
21
116.000
31
0
0
ARC
8
CUT
10
339.000
20
110.000
30
0
40
6.000
50
270.000
51
90.000
0
ARC
8
CUT
10
321.000
20
110.000
30
0
40
6.000
50
90.000
51
270.000
0
LINE
8
CUT
10
296.000
20
58.000
30
0
11
296.000
21
70.000
31
0
0
LINE
8
CUT
10
292.000
20
70.000
30
0
11
292.000
21
58.000
31
0
0
ARC
8
CUT
10
294.000
20
70.000
30
0
40
2.000
50
0.000
51
180.000
0
ARC
8
CUT
10
294.000
20
58.000
30
0
40
2.000
50
180.000
51
360.000
0
LINE
8
CUT
10
368.000
20
58.000
30
0
11
368.000
21
70.000
31
0
0
LINE
8
CUT
10
364.000
20
70.000
30
0
11
364.000
21
58.000
31
0
0
ARC
8
CUT
10
366.000
20
70.000
30
0
40
2.000
50
0.000
51
180.000
0
ARC
8
CUT
10
366.000
20
58.000
30
0
40
2.000
50
180.000
51
360.000
0
LINE
8
CUT
10
313.800
20
236.700
30
0
11
322.200
21
236.700
31
0
0
LINE
8
CUT
10
322.200
20
236.700
30
0
11
322.200
21
233.300
31
0
0
LINE
8
CUT
10
322.200
20
233.300
30
0
11
313.800
21
233.300
31
0
0
LINE
8
CUT
10
313.800
20
233.300
30
0
11
313.800
21
236.700
31
0
0
LINE
8
CUT
10
337.800
20
236.700
30
0
11
346.200
21
236.700
31
0
0
LINE
8
CUT
10
346.200
20
236.700
30
0
11
346.200
21
233.300
31
0
0
LINE
8
CUT
10
346.200
20
233.300
30
0
11
337.800
21
233.300
31
0
0
LINE
8
CUT
10
337.800
20
233.300
30
0
11
337.800
21
236.700
31
0
0
LINE
8
CUT
10
460.000
20
3.000
30
0
11
469.000
21
3.000
31
0
0
LINE
8
CUT
10
469.000
20
3.000
30
0
11
469.000
21
0.000
31
0
0
LINE
8
CUT
10
469.000
20
0.000
30
0
11
477.000
21
0.000
31
0
0
LINE
8
CUT
10
477.000
20
0.000
30
0
11
477.000
21
3.000
31
0
0
LINE
8
CUT
10
477.000
20
3.000
30
0
11
493.000
21
3.000
31
0
0
LINE
8
CUT
10
493.000
20
3.000
30
0
11
493.000
21
0.000
31
0
0
LINE
8
CUT
10
493.000
20
0.000
30
0
11
501.000
21
0.000
31
0
0
LINE
8
CUT
10
501.000
20
0.000
30
0
11
501.000
21
3.000
31
0
0
LINE
8
CUT
10
501.000
20
3.000
30
0
11
510.000
21
3.000
31
0
0
LINE
8
CUT
10
510.000
20
3.000
30
0
11
510.000
21
50.000
31
0
0
LINE
8
CUT
10
510.000
20
50.000
30
0
11
460.000
21
50.000
31
0
0
LINE
8
CUT
10
460.000
20
50.000
30
0
11
460.000
21
3.000
31
0
0
LINE
8
CUT
10
477.000
20
8.000
30
0
11
493.000
21
8.000
31
0
0
LINE
8
CUT
10
493.000
20
12.000
30
0
11
477.000
21
12.000
31
0
0
ARC
8
CUT
10
493.000
20
10.000
30
0
40
2.000
50
270.000
51
90.000
0
ARC
8
CUT
10
477.000
20
10.000
30
0
40
2.000
50
90.000
51
270.000
0
CIRCLE
8
CUT
10
474.500
20
24.000
30
0
40
1.200
0
LINE
8
CUT
10
475.700
20
36.700
30
0
11
475.700
21
39.300
31
0
0
LINE
8
CUT
10
473.300
20
39.300
30
0
11
473.300
21
36.700
31
0
0
ARC
8
CUT
10
474.500
20
39.300
30
0
40
1.200
50
0.000
51
180.000
0
ARC
8
CUT
10
474.500
20
36.700
30
0
40
1.200
50
180.000
51
360.000
0
CIRCLE
8
CUT
10
495.500
20
24.000
30
0
40
1.200
0
LINE
8
CUT
10
496.700
20
36.700
30
0
11
496.700
21
39.300
31
0
0
LINE
8
CUT
10
494.300
20
39.300
30
0
11
494.300
21
36.700
31
0
0
ARC
8
CUT
10
495.500
20
39.300
30
0
40
1.200
50
0.000
51
180.000
0
ARC
8
CUT
10
495.500
20
36.700
30
0
40
1.200
50
180.000
51
360.000
0
ENDSEC
0
EOF
